# xmcd CD database file
#
# Track frame offsets:
#	150
#	13094
#	23919
#	36359
#	49328
#	82175
#	91390
#	102330
#	112487
#	124476
#	132207
#	145046
#	161333
#	176287
#	185960
#	209429
#
# Disc length: 2986 seconds
#
# Revision: 0
# Processed by: cddbd v1.5.2PL0 Copyright (c) Steve Scherf et al.
# Submitted via: CDex 1.70beta2
#
DISCID=ee0ba810
DTITLE=Various Artist - I Love Paris
DYEAR=1900
DGENRE=Jazz
TTITLE0=Miles Davis - Florence sur les Champs-Élysées
TTITLE1=Michel Legrand - The Last Time I Saw Paris
TTITLE2=Danny Polo - Montparnasse Jump
TTITLE3=Sammy Price - Good Paree
TTITLE4=Sammy Price and Lucky Thompson - Paris Blues
TTITLE5=Michel Legrand - Paris canaille
TTITLE6=Les Amis de Django - Swing from Paris
TTITLE7=Gus Viseur - Revoir Paris
TTITLE8=Ediie Barclay - Place Blanche
TTITLE9=Gus Viseur - Quel temps fait-il à Paris?
TTITLE10=Michel Legrand - I Love Paris
TTITLE11=René Urtreger - Parisian Thoroughfare
TTITLE12=Bernard Peiffer - Balld in Paris
TTITLE13=Gus Viseur - Le bal du P'tit Jardin
TTITLE14=Michel Legrand - April in Paris
TTITLE15=Sammy Price and Lucky Thompson - Embassy Boogie
EXTD=
EXTT0=
EXTT1=
EXTT2=
EXTT3=
EXTT4=
EXTT5=
EXTT6=
EXTT7=
EXTT8=
EXTT9=
EXTT10=
EXTT11=
EXTT12=
EXTT13=
EXTT14=
EXTT15=
PLAYORDER=
